<svg width="93" height="93" viewBox="0 0 93 93" fill="none" xmlns="http://www.w3.org/2000/svg">
<g clip-path="url(#clip0_1_37)">
<path d="M28.8889 56.7829C29.3621 55.9277 30.0666 55.2232 30.9218 54.75" stroke="black" stroke-linecap="round" stroke-linejoin="round"/>
<path d="M37.1528 35.7917C37.3791 35.3827 37.7161 35.0458 38.125 34.8195" stroke="black" stroke-width="0.75" stroke-linecap="round" stroke-linejoin="round"/>
<path d="M7.5 31.7531C8.25714 30.3846 9.38458 29.2571 10.7531 28.5" stroke="black" stroke-linecap="round" stroke-linejoin="round"/>
<path d="M13.8194 48.9167C21.0683 48.9167 26.9444 43.0406 26.9444 35.7917C26.9444 28.5428 21.0683 22.6667 13.8194 22.6667C6.57055 22.6667 0.694443 28.5428 0.694443 35.7917C0.694443 43.0406 6.57055 48.9167 13.8194 48.9167ZM39.874 45.7084C41.9092 45.7084 43.8611 44.8999 45.3002 43.4608C46.7393 42.0217 47.5478 40.0698 47.5478 38.0346C47.5478 35.9994 46.7393 34.0476 45.3002 32.6084C43.8611 31.1693 41.9092 30.3609 39.874 30.3609C37.8388 30.3609 35.887 31.1693 34.4479 32.6084C33.0088 34.0476 32.2003 35.9994 32.2003 38.0346C32.2003 40.0698 33.0088 42.0217 34.4479 43.4608C35.887 44.8999 37.8388 45.7084 39.874 45.7084ZM32.7778 69.3334C38.1474 69.3334 42.5 64.9807 42.5 59.6111C42.5 54.2416 38.1474 49.8889 32.7778 49.8889C27.4082 49.8889 23.0556 54.2416 23.0556 59.6111C23.0556 64.9807 27.4082 69.3334 32.7778 69.3334Z" fill="#92D3F5"/>
<path d="M21.1111 35.7917C21.1111 37.4677 20.4453 39.0751 19.2602 40.2602C18.0751 41.4453 16.4677 42.1111 14.7917 42.1111" stroke="#61B2E4" stroke-width="2.5" stroke-linecap="round" stroke-linejoin="round"/>
<path d="M38.6111 59.6111C38.6111 60.9003 38.099 62.1368 37.1873 63.0484C36.2757 63.96 35.0392 64.4722 33.75 64.4722" stroke="#61B2E4" stroke-width="1.5" stroke-linecap="round" stroke-linejoin="round"/>
<path d="M43.9583 38.7083C43.9583 39.4819 43.651 40.2237 43.1041 40.7707C42.5571 41.3177 41.8152 41.625 41.0417 41.625" stroke="#61B2E4" stroke-width="1.25" stroke-linecap="round" stroke-linejoin="round"/>
<path d="M28.8889 56.7829C29.3621 55.9277 30.0666 55.2232 30.9218 54.75" stroke="white" stroke-linecap="round" stroke-linejoin="round"/>
<path d="M37.1528 35.7917C37.3791 35.3827 37.7161 35.0458 38.125 34.8195" stroke="white" stroke-width="0.75" stroke-linecap="round" stroke-linejoin="round"/>
<path d="M7.5 31.7531C8.25714 30.3846 9.38458 29.2571 10.7531 28.5" stroke="white" stroke-linecap="round" stroke-linejoin="round"/>
<path d="M14.7917 48.9167C22.0406 48.9167 27.9167 43.0406 27.9167 35.7917C27.9167 28.5428 22.0406 22.6667 14.7917 22.6667C7.54278 22.6667 1.66666 28.5428 1.66666 35.7917C1.66666 43.0406 7.54278 48.9167 14.7917 48.9167ZM40.5556 46C42.6183 46 44.5967 45.1806 46.0553 43.722C47.5139 42.2633 48.3333 40.285 48.3333 38.2222C48.3333 36.1594 47.5139 34.1811 46.0553 32.7225C44.5967 31.2639 42.6183 30.4445 40.5556 30.4445C38.4928 30.4445 36.5145 31.2639 35.0558 32.7225C33.5972 34.1811 32.7778 36.1594 32.7778 38.2222C32.7778 40.285 33.5972 42.2633 35.0558 43.722C36.5145 45.1806 38.4928 46 40.5556 46ZM33.75 69.3334C39.1196 69.3334 43.4722 64.9807 43.4722 59.6111C43.4722 54.2415 39.1196 49.8889 33.75 49.8889C28.3804 49.8889 24.0278 54.2415 24.0278 59.6111C24.0278 64.9807 28.3804 69.3334 33.75 69.3334Z" stroke="black" stroke-width="0.5" stroke-linecap="round" stroke-linejoin="round"/>
<path d="M33.75 69.3334C39.1196 69.3334 43.4722 64.9807 43.4722 59.6111C43.4722 54.2416 39.1196 49.8889 33.75 49.8889C28.3804 49.8889 24.0278 54.2416 24.0278 59.6111C24.0278 64.9807 28.3804 69.3334 33.75 69.3334Z" stroke="black" stroke-width="0.5" stroke-linecap="round" stroke-linejoin="round"/>
<path d="M56.376 31.4H67.896V37.16H58.68L58.536 37.448L66.216 51.464C67.784 54.28 68.568 56.424 68.568 57.896C68.568 61.128 67.496 63.496 65.352 65H52.632V59.432H62.568L62.712 59.144L54.072 43.64C52.824 41.4 52.2 39.576 52.2 38.168C52.2 34.84 53.592 32.584 56.376 31.4ZM71.9134 65V31.4H85.5934C87.1614 31.976 88.5534 32.984 89.7694 34.424C90.9854 35.864 91.5934 37.608 91.5934 39.656C91.5934 43.272 90.4094 45.8 88.0414 47.24V47.432C90.9854 49.064 92.4574 51.624 92.4574 55.112C92.4574 59.112 90.4254 62.408 86.3614 65H71.9134ZM78.4414 45.272H83.1934C84.6014 44.408 85.3054 43.096 85.3054 41.336C85.3054 39.576 84.6494 38.184 83.3374 37.16H78.4414V45.272ZM78.4414 59.432H83.3854C83.9614 59.016 84.4734 58.36 84.9214 57.464C85.4014 56.568 85.6414 55.672 85.6414 54.776C85.6414 53.88 85.4494 53.064 85.0654 52.328C84.6814 51.592 84.2014 51.048 83.6254 50.696H78.4414V59.432Z" fill="white"/>
</g>
<defs>
<clipPath id="clip0_1_37">
<rect width="93" height="93" fill="white"/>
</clipPath>
</defs>
</svg>
